# xmcd
# Track frame offsets:
# 150
# 18771
# 33486
# 55457
# 71938
# 87381
# 98884
# 121272
# 139180
# 152272
# 166755
# 180810
# 197818
#
# Disc length: 2795 seconds
# Revision: 2
# Processed by: cddbd v1.5.1PL0 Copyright (c) Steve Scherf et al.
# Submitted via: VisiTrax 2.9.10.228 - For more info visit www.synapsa.com
#
DISCID=a30ae90d
DTITLE=Keb' Mo' - Just Like You
DYEAR=1996
DGENRE=
TTITLE0=That's Not Love
TTITLE1=Perpetual Blues Machine
TTITLE2=More Than One Way Home
TTITLE3=I'm On Your Side
TTITLE4=Just Like You
TTITLE5=You Can Love Yourself
TTITLE6=Dangerous Mood
TTITLE7=The Action
TTITLE8=Hand It Over
TTITLE9=Standin' At The Station
TTITLE10=Momma, Where's My Daddy
TTITLE11=Last Fair Deal Gone Down
TTITLE12=Lullaby Baby Blues
EXTD=
EXTT0=
EXTT1=
EXTT2=
EXTT3=
EXTT4=
EXTT5=
EXTT6=
EXTT7=
EXTT8=
EXTT9=
EXTT10=
EXTT11=
EXTT12=
PLAYORDER=
